<svg id="visual" viewBox="0 0 900 600" width="900" height="600" xmlns="http://www.w3.org/2000/svg" xmlns:xlink="http://www.w3.org/1999/xlink" version="1.1"><g stroke-width="1" stroke-linejoin="bevel"><path d="M489 279.9L499 336.1L514 286.1Z" fill="#770d06" stroke="#420803"></path><path d="M499 336.1L531 291.1L514 286.1Z" fill="#830f07" stroke="#420803"></path><path d="M499 336.1L539 344.7L531 291.1Z" fill="#941107" stroke="#420803"></path><path d="M499 336.1L537 362L539 344.7Z" fill="#830f07" stroke="#420803"></path><path d="M589 317L569 288.1L539 344.7Z" fill="#730d06" stroke="#420803"></path><path d="M539 344.7L569 288.1L531 291.1Z" fill="#8c1007" stroke="#420803"></path><path d="M531 291.1L543 221.3L514 286.1Z" fill="#901007" stroke="#420803"></path><path d="M466 196.4L441 247.9L489 279.9Z" fill="#941107" stroke="#420803"></path><path d="M454 387.6L540 371L537 362Z" fill="#8c1007" stroke="#420803"></path><path d="M537 362L578 352.1L539 344.7Z" fill="#7f0e07" stroke="#420803"></path><path d="M543 221.3L489 279.9L514 286.1Z" fill="#7b0e07" stroke="#420803"></path><path d="M435 379.9L454 387.6L499 336.1Z" fill="#901007" stroke="#420803"></path><path d="M405 289.3L499 336.1L489 279.9Z" fill="#830f07" stroke="#420803"></path><path d="M499 336.1L454 387.6L537 362Z" fill="#7b0e07" stroke="#420803"></path><path d="M441 247.9L405 289.3L489 279.9Z" fill="#770d06" stroke="#420803"></path><path d="M540 371L578 352.1L537 362Z" fill="#770d06" stroke="#420803"></path><path d="M405 289.3L435 379.9L499 336.1Z" fill="#830f07" stroke="#420803"></path><path d="M578 352.1L589 317L539 344.7Z" fill="#870f07" stroke="#420803"></path><path d="M599 248.3L543 221.3L569 288.1Z" fill="#830f07" stroke="#420803"></path><path d="M569 288.1L543 221.3L531 291.1Z" fill="#870f07" stroke="#420803"></path><path d="M617 343.9L595 307L589 317Z" fill="#6f0c06" stroke="#420803"></path><path d="M589 317L595 307L569 288.1Z" fill="#6b0c05" stroke="#420803"></path><path d="M435 379.9L449 405.6L454 387.6Z" fill="#8c1007" stroke="#420803"></path><path d="M454 387.6L530 422.6L540 371Z" fill="#901007" stroke="#420803"></path><path d="M543 221.3L466 196.4L489 279.9Z" fill="#830f07" stroke="#420803"></path><path d="M441 247.9L397 227L405 289.3Z" fill="#901007" stroke="#420803"></path><path d="M349 286.1L379 317L405 289.3Z" fill="#6b0c05" stroke="#420803"></path><path d="M405 289.3L379 317L435 379.9Z" fill="#830f07" stroke="#420803"></path><path d="M435 379.9L389 379.6L449 405.6Z" fill="#7b0e07" stroke="#420803"></path><path d="M540 371L595 368.9L578 352.1Z" fill="#901007" stroke="#420803"></path><path d="M578 352.1L617 343.9L589 317Z" fill="#730d06" stroke="#420803"></path><path d="M603 425.7L595 368.9L540 371Z" fill="#6f0c06" stroke="#420803"></path><path d="M628 237.1L599 248.3L644 260.9Z" fill="#941107" stroke="#420803"></path><path d="M595 307L599 248.3L569 288.1Z" fill="#6f0c06" stroke="#420803"></path><path d="M449 405.6L530 422.6L454 387.6Z" fill="#730d06" stroke="#420803"></path><path d="M543 221.3L471 185.4L466 196.4Z" fill="#7f0e07" stroke="#420803"></path><path d="M421 180.4L397 227L441 247.9Z" fill="#830f07" stroke="#420803"></path><path d="M538 172.6L471 185.4L543 221.3Z" fill="#830f07" stroke="#420803"></path><path d="M599 248.3L589 224.4L543 221.3Z" fill="#941107" stroke="#420803"></path><path d="M595 368.9L617 343.9L578 352.1Z" fill="#7f0e07" stroke="#420803"></path><path d="M421 180.4L441 247.9L466 196.4Z" fill="#901007" stroke="#420803"></path><path d="M379 317L389 379.6L435 379.9Z" fill="#941107" stroke="#420803"></path><path d="M379 317L368 367.7L389 379.6Z" fill="#870f07" stroke="#420803"></path><path d="M363 365L368 367.7L379 317Z" fill="#7f0e07" stroke="#420803"></path><path d="M603 425.7L623 366.9L595 368.9Z" fill="#770d06" stroke="#420803"></path><path d="M595 368.9L623 366.9L617 343.9Z" fill="#770d06" stroke="#420803"></path><path d="M644 260.9L599 248.3L595 307Z" fill="#7f0e07" stroke="#420803"></path><path d="M589 224.4L538 172.6L543 221.3Z" fill="#6f0c06" stroke="#420803"></path><path d="M323 317.7L363 365L379 317Z" fill="#830f07" stroke="#420803"></path><path d="M368 367.7L364 384.9L389 379.6Z" fill="#730d06" stroke="#420803"></path><path d="M444 164.7L421 180.4L466 196.4Z" fill="#941107" stroke="#420803"></path><path d="M444 164.7L466 196.4L471 185.4Z" fill="#770d06" stroke="#420803"></path><path d="M341 232.4L349 286.1L397 227Z" fill="#830f07" stroke="#420803"></path><path d="M397 227L349 286.1L405 289.3Z" fill="#730d06" stroke="#420803"></path><path d="M517 467.7L530 451.7L530 422.6Z" fill="#8c1007" stroke="#420803"></path><path d="M530 422.6L603 425.7L540 371Z" fill="#7f0e07" stroke="#420803"></path><path d="M517 467.7L530 422.6L449 405.6Z" fill="#870f07" stroke="#420803"></path><path d="M644 260.9L595 307L671 310.1Z" fill="#870f07" stroke="#420803"></path><path d="M599 248.3L628 237.1L589 224.4Z" fill="#8c1007" stroke="#420803"></path><path d="M589 224.4L605 156.3L538 172.6Z" fill="#6b0c05" stroke="#420803"></path><path d="M448 139.6L444 164.7L471 185.4Z" fill="#7f0e07" stroke="#420803"></path><path d="M363 365L364 384.9L368 367.7Z" fill="#770d06" stroke="#420803"></path><path d="M405 457.6L449 472.4L449 405.6Z" fill="#770d06" stroke="#420803"></path><path d="M314 382L364 384.9L363 365Z" fill="#901007" stroke="#420803"></path><path d="M671 310.1L595 307L617 343.9Z" fill="#8c1007" stroke="#420803"></path><path d="M393 132.4L396 187.1L421 180.4Z" fill="#870f07" stroke="#420803"></path><path d="M421 180.4L396 187.1L397 227Z" fill="#7f0e07" stroke="#420803"></path><path d="M670 369L645 353.7L623 366.9Z" fill="#7f0e07" stroke="#420803"></path><path d="M623 366.9L645 353.7L617 343.9Z" fill="#830f07" stroke="#420803"></path><path d="M597 445.6L603 425.7L530 422.6Z" fill="#870f07" stroke="#420803"></path><path d="M449 472.4L517 467.7L449 405.6Z" fill="#7b0e07" stroke="#420803"></path><path d="M530 451.7L597 445.6L530 422.6Z" fill="#870f07" stroke="#420803"></path><path d="M517 467.7L545 468.1L530 451.7Z" fill="#6b0c05" stroke="#420803"></path><path d="M405 457.6L449 405.6L389 379.6Z" fill="#830f07" stroke="#420803"></path><path d="M517 467.7L536 479.3L545 468.1Z" fill="#7b0e07" stroke="#420803"></path><path d="M545 468.1L597 445.6L530 451.7Z" fill="#830f07" stroke="#420803"></path><path d="M684 393L670 369L623 366.9Z" fill="#830f07" stroke="#420803"></path><path d="M396 187.1L341 232.4L397 227Z" fill="#770d06" stroke="#420803"></path><path d="M313 264.9L323 317.7L349 286.1Z" fill="#770d06" stroke="#420803"></path><path d="M349 286.1L323 317.7L379 317Z" fill="#7b0e07" stroke="#420803"></path><path d="M518 126.7L448 139.6L471 185.4Z" fill="#730d06" stroke="#420803"></path><path d="M444 164.7L393 132.4L421 180.4Z" fill="#870f07" stroke="#420803"></path><path d="M310 205L320 225.6L341 232.4Z" fill="#6f0c06" stroke="#420803"></path><path d="M407 468.3L405 457.6L382 501.4Z" fill="#6f0c06" stroke="#420803"></path><path d="M364 384.9L405 457.6L389 379.6Z" fill="#770d06" stroke="#420803"></path><path d="M686 334.6L671 310.1L645 353.7Z" fill="#770d06" stroke="#420803"></path><path d="M645 353.7L671 310.1L617 343.9Z" fill="#730d06" stroke="#420803"></path><path d="M480 527.3L536 479.3L517 467.7Z" fill="#901007" stroke="#420803"></path><path d="M545 468.1L594 466.6L597 445.6Z" fill="#7f0e07" stroke="#420803"></path><path d="M551 106.9L518 126.7L538 172.6Z" fill="#830f07" stroke="#420803"></path><path d="M538 172.6L518 126.7L471 185.4Z" fill="#941107" stroke="#420803"></path><path d="M382 501.4L405 457.6L288 447.6Z" fill="#7f0e07" stroke="#420803"></path><path d="M405 457.6L407 468.3L449 472.4Z" fill="#7f0e07" stroke="#420803"></path><path d="M684 393L623 366.9L603 425.7Z" fill="#901007" stroke="#420803"></path><path d="M585 477.4L594 466.6L545 468.1Z" fill="#770d06" stroke="#420803"></path><path d="M676 455.4L684 393L603 425.7Z" fill="#6f0c06" stroke="#420803"></path><path d="M617 164.7L589 224.4L628 237.1Z" fill="#7b0e07" stroke="#420803"></path><path d="M617 164.7L605 156.3L589 224.4Z" fill="#6b0c05" stroke="#420803"></path><path d="M617 164.7L628 237.1L665 175.7Z" fill="#6b0c05" stroke="#420803"></path><path d="M341 232.4L313 264.9L349 286.1Z" fill="#830f07" stroke="#420803"></path><path d="M665 175.7L628 237.1L644 260.9Z" fill="#7f0e07" stroke="#420803"></path><path d="M536 479.3L585 477.4L545 468.1Z" fill="#770d06" stroke="#420803"></path><path d="M670 369L686 334.6L645 353.7Z" fill="#6f0c06" stroke="#420803"></path><path d="M724 237.1L665 175.7L644 260.9Z" fill="#8c1007" stroke="#420803"></path><path d="M310 205L341 232.4L396 187.1Z" fill="#901007" stroke="#420803"></path><path d="M341 232.4L320 225.6L313 264.9Z" fill="#8c1007" stroke="#420803"></path><path d="M286 337.7L314 382L323 317.7Z" fill="#770d06" stroke="#420803"></path><path d="M323 317.7L314 382L363 365Z" fill="#870f07" stroke="#420803"></path><path d="M407 468.3L455 505.6L449 472.4Z" fill="#941107" stroke="#420803"></path><path d="M449 472.4L455 505.6L517 467.7Z" fill="#830f07" stroke="#420803"></path><path d="M528 563.1L614 487.4L585 477.4Z" fill="#6f0c06" stroke="#420803"></path><path d="M262 259.3L294 289.9L313 264.9Z" fill="#7b0e07" stroke="#420803"></path><path d="M313 264.9L294 289.9L323 317.7Z" fill="#8c1007" stroke="#420803"></path><path d="M401 98.9L393 132.4L448 139.6Z" fill="#6b0c05" stroke="#420803"></path><path d="M448 139.6L393 132.4L444 164.7Z" fill="#770d06" stroke="#420803"></path><path d="M393 132.4L374 141.3L396 187.1Z" fill="#7f0e07" stroke="#420803"></path><path d="M676 455.4L603 425.7L597 445.6Z" fill="#941107" stroke="#420803"></path><path d="M670 369L684 393L686 334.6Z" fill="#901007" stroke="#420803"></path><path d="M614 487.4L597 445.6L594 466.6Z" fill="#7b0e07" stroke="#420803"></path><path d="M605 156.3L551 106.9L538 172.6Z" fill="#8c1007" stroke="#420803"></path><path d="M518 126.7L447 92.9L448 139.6Z" fill="#830f07" stroke="#420803"></path><path d="M631 133.3L551 106.9L605 156.3Z" fill="#830f07" stroke="#420803"></path><path d="M275 304.7L286 337.7L323 317.7Z" fill="#8c1007" stroke="#420803"></path><path d="M374 141.3L310 205L396 187.1Z" fill="#6f0c06" stroke="#420803"></path><path d="M320 225.6L282 233.3L313 264.9Z" fill="#8c1007" stroke="#420803"></path><path d="M724 237.1L644 260.9L671 310.1Z" fill="#830f07" stroke="#420803"></path><path d="M617 164.7L631 133.3L605 156.3Z" fill="#7f0e07" stroke="#420803"></path><path d="M528 563.1L585 477.4L536 479.3Z" fill="#8c1007" stroke="#420803"></path><path d="M585 477.4L614 487.4L594 466.6Z" fill="#870f07" stroke="#420803"></path><path d="M451 553.1L480 527.3L455 505.6Z" fill="#7b0e07" stroke="#420803"></path><path d="M455 505.6L480 527.3L517 467.7Z" fill="#8c1007" stroke="#420803"></path><path d="M491 56.9L447 92.9L518 126.7Z" fill="#6b0c05" stroke="#420803"></path><path d="M393 132.4L395 96.7L374 141.3Z" fill="#901007" stroke="#420803"></path><path d="M262 259.3L275 304.7L294 289.9Z" fill="#870f07" stroke="#420803"></path><path d="M294 289.9L275 304.7L323 317.7Z" fill="#7f0e07" stroke="#420803"></path><path d="M665 175.7L631 133.3L617 164.7Z" fill="#770d06" stroke="#420803"></path><path d="M288 447.6L405 457.6L364 384.9Z" fill="#8c1007" stroke="#420803"></path><path d="M407 468.3L382 501.4L455 505.6Z" fill="#6f0c06" stroke="#420803"></path><path d="M288 447.6L364 384.9L314 382Z" fill="#901007" stroke="#420803"></path><path d="M447 92.9L431 91.6L448 139.6Z" fill="#770d06" stroke="#420803"></path><path d="M310 205L282 233.3L320 225.6Z" fill="#7f0e07" stroke="#420803"></path><path d="M431 91.6L401 98.9L448 139.6Z" fill="#901007" stroke="#420803"></path><path d="M293 157.4L292 190.6L310 205Z" fill="#7b0e07" stroke="#420803"></path><path d="M310 205L282 204.1L282 233.3Z" fill="#941107" stroke="#420803"></path><path d="M593 50.6L534 77.7L551 106.9Z" fill="#7f0e07" stroke="#420803"></path><path d="M551 106.9L534 77.7L518 126.7Z" fill="#941107" stroke="#420803"></path><path d="M447 92.9L472 51.9L431 91.6Z" fill="#830f07" stroke="#420803"></path><path d="M614 487.4L676 455.4L597 445.6Z" fill="#870f07" stroke="#420803"></path><path d="M431 91.6L395 96.7L401 98.9Z" fill="#730d06" stroke="#420803"></path><path d="M401 98.9L395 96.7L393 132.4Z" fill="#830f07" stroke="#420803"></path><path d="M293 157.4L310 205L374 141.3Z" fill="#730d06" stroke="#420803"></path><path d="M292 190.6L282 204.1L310 205Z" fill="#8c1007" stroke="#420803"></path><path d="M282 233.3L262 259.3L313 264.9Z" fill="#770d06" stroke="#420803"></path><path d="M244 229.3L262 259.3L282 233.3Z" fill="#8c1007" stroke="#420803"></path><path d="M609 600L635 501.1L614 487.4Z" fill="#7b0e07" stroke="#420803"></path><path d="M614 487.4L635 501.1L676 455.4Z" fill="#7b0e07" stroke="#420803"></path><path d="M665 175.7L672 146.4L631 133.3Z" fill="#830f07" stroke="#420803"></path><path d="M631 133.3L612 68.7L551 106.9Z" fill="#6b0c05" stroke="#420803"></path><path d="M699 176.7L672 146.4L665 175.7Z" fill="#7b0e07" stroke="#420803"></path><path d="M766 326.9L671 310.1L686 334.6Z" fill="#6f0c06" stroke="#420803"></path><path d="M766 326.9L724 237.1L671 310.1Z" fill="#7f0e07" stroke="#420803"></path><path d="M747 353.6L686 334.6L684 393Z" fill="#7b0e07" stroke="#420803"></path><path d="M724 237.1L699 176.7L665 175.7Z" fill="#770d06" stroke="#420803"></path><path d="M399 539.3L434 544.4L455 505.6Z" fill="#8c1007" stroke="#420803"></path><path d="M480 527.3L503 555.3L536 479.3Z" fill="#8c1007" stroke="#420803"></path><path d="M253 402.9L266 398.4L236 390Z" fill="#901007" stroke="#420803"></path><path d="M286 337.7L266 398.4L314 382Z" fill="#6f0c06" stroke="#420803"></path><path d="M266 398.4L286 337.7L236 390Z" fill="#7b0e07" stroke="#420803"></path><path d="M451 553.1L503 555.3L480 527.3Z" fill="#8c1007" stroke="#420803"></path><path d="M434 544.4L451 553.1L455 505.6Z" fill="#6f0c06" stroke="#420803"></path><path d="M266 418.7L288 447.6L314 382Z" fill="#870f07" stroke="#420803"></path><path d="M382 501.4L399 539.3L455 505.6Z" fill="#6f0c06" stroke="#420803"></path><path d="M399 547.1L399 539.3L371 561.3Z" fill="#7f0e07" stroke="#420803"></path><path d="M404 600L466 600L451 553.1Z" fill="#6b0c05" stroke="#420803"></path><path d="M534 77.7L491 56.9L518 126.7Z" fill="#830f07" stroke="#420803"></path><path d="M373 66.6L358 76.7L395 96.7Z" fill="#8c1007" stroke="#420803"></path><path d="M720 472.1L722 417.3L676 455.4Z" fill="#6f0c06" stroke="#420803"></path><path d="M676 455.4L722 417.3L684 393Z" fill="#6b0c05" stroke="#420803"></path><path d="M292 190.6L239 142.7L282 204.1Z" fill="#6f0c06" stroke="#420803"></path><path d="M282 204.1L244 229.3L282 233.3Z" fill="#770d06" stroke="#420803"></path><path d="M291 125.3L293 157.4L374 141.3Z" fill="#870f07" stroke="#420803"></path><path d="M699 176.7L684 139.4L672 146.4Z" fill="#770d06" stroke="#420803"></path><path d="M672 146.4L661 93.4L631 133.3Z" fill="#830f07" stroke="#420803"></path><path d="M524 0L496 8.9L491 56.9Z" fill="#8c1007" stroke="#420803"></path><path d="M703 120.3L684 139.4L699 176.7Z" fill="#8c1007" stroke="#420803"></path><path d="M266 398.4L266 418.7L314 382Z" fill="#870f07" stroke="#420803"></path><path d="M253 402.9L266 418.7L266 398.4Z" fill="#770d06" stroke="#420803"></path><path d="M752 386.7L747 353.6L684 393Z" fill="#901007" stroke="#420803"></path><path d="M491 56.9L472 51.9L447 92.9Z" fill="#830f07" stroke="#420803"></path><path d="M527 600L528 563.1L503 555.3Z" fill="#8c1007" stroke="#420803"></path><path d="M503 555.3L528 563.1L536 479.3Z" fill="#6f0c06" stroke="#420803"></path><path d="M399 539.3L399 547.1L434 544.4Z" fill="#870f07" stroke="#420803"></path><path d="M451 553.1L466 600L503 555.3Z" fill="#7f0e07" stroke="#420803"></path><path d="M371 561.3L399 539.3L382 501.4Z" fill="#7f0e07" stroke="#420803"></path><path d="M266 418.7L275 453.3L288 447.6Z" fill="#870f07" stroke="#420803"></path><path d="M225 314.9L286 337.7L275 304.7Z" fill="#6b0c05" stroke="#420803"></path><path d="M239 142.7L244 229.3L282 204.1Z" fill="#6b0c05" stroke="#420803"></path><path d="M223 306.1L225 314.9L275 304.7Z" fill="#770d06" stroke="#420803"></path><path d="M669 518.4L692 483.7L635 501.1Z" fill="#870f07" stroke="#420803"></path><path d="M635 501.1L692 483.7L676 455.4Z" fill="#770d06" stroke="#420803"></path><path d="M194 455.3L275 453.3L266 418.7Z" fill="#7b0e07" stroke="#420803"></path><path d="M288 447.6L324 512.1L382 501.4Z" fill="#941107" stroke="#420803"></path><path d="M661 93.4L612 68.7L631 133.3Z" fill="#770d06" stroke="#420803"></path><path d="M491 56.9L496 8.9L472 51.9Z" fill="#870f07" stroke="#420803"></path><path d="M301 502.1L324 512.1L288 447.6Z" fill="#8c1007" stroke="#420803"></path><path d="M785 192.4L742 206.1L724 237.1Z" fill="#770d06" stroke="#420803"></path><path d="M724 237.1L742 206.1L699 176.7Z" fill="#830f07" stroke="#420803"></path><path d="M762 410.7L752 386.7L722 417.3Z" fill="#770d06" stroke="#420803"></path><path d="M722 417.3L752 386.7L684 393Z" fill="#941107" stroke="#420803"></path><path d="M747 353.6L766 326.9L686 334.6Z" fill="#830f07" stroke="#420803"></path><path d="M373 66.6L395 96.7L431 91.6Z" fill="#770d06" stroke="#420803"></path><path d="M395 96.7L358 76.7L374 141.3Z" fill="#7f0e07" stroke="#420803"></path><path d="M223 306.1L275 304.7L262 259.3Z" fill="#730d06" stroke="#420803"></path><path d="M405 0L373 66.6L431 91.6Z" fill="#870f07" stroke="#420803"></path><path d="M703 120.3L661 93.4L684 139.4Z" fill="#770d06" stroke="#420803"></path><path d="M684 139.4L661 93.4L672 146.4Z" fill="#7b0e07" stroke="#420803"></path><path d="M822 387.7L766 326.9L747 353.6Z" fill="#7f0e07" stroke="#420803"></path><path d="M253 402.9L194 455.3L266 418.7Z" fill="#6f0c06" stroke="#420803"></path><path d="M225 314.9L236 390L286 337.7Z" fill="#901007" stroke="#420803"></path><path d="M216 259.1L223 306.1L262 259.3Z" fill="#8c1007" stroke="#420803"></path><path d="M225 314.9L198 379.6L236 390Z" fill="#7f0e07" stroke="#420803"></path><path d="M651 589.3L669 518.4L635 501.1Z" fill="#941107" stroke="#420803"></path><path d="M328 90.9L291 125.3L374 141.3Z" fill="#7b0e07" stroke="#420803"></path><path d="M239 142.7L228 233.4L244 229.3Z" fill="#7b0e07" stroke="#420803"></path><path d="M312 0L328 90.9L358 76.7Z" fill="#901007" stroke="#420803"></path><path d="M358 76.7L328 90.9L374 141.3Z" fill="#6f0c06" stroke="#420803"></path><path d="M276 492.4L301 502.1L288 447.6Z" fill="#730d06" stroke="#420803"></path><path d="M324 512.1L371 561.3L382 501.4Z" fill="#941107" stroke="#420803"></path><path d="M276 492.4L288 447.6L275 453.3Z" fill="#6b0c05" stroke="#420803"></path><path d="M590 31.6L593 50.6L593 29.6Z" fill="#830f07" stroke="#420803"></path><path d="M612 68.7L593 50.6L551 106.9Z" fill="#901007" stroke="#420803"></path><path d="M244 229.3L228 233.4L262 259.3Z" fill="#6f0c06" stroke="#420803"></path><path d="M239 142.7L292 190.6L293 157.4Z" fill="#6f0c06" stroke="#420803"></path><path d="M692 483.7L720 472.1L676 455.4Z" fill="#941107" stroke="#420803"></path><path d="M689 520.6L720 472.1L692 483.7Z" fill="#7b0e07" stroke="#420803"></path><path d="M239 142.7L276 135.7L260 32.7Z" fill="#730d06" stroke="#420803"></path><path d="M291 125.3L276 135.7L293 157.4Z" fill="#941107" stroke="#420803"></path><path d="M749 145.6L703 120.3L699 176.7Z" fill="#730d06" stroke="#420803"></path><path d="M343 608.3L371 561.3L321 600Z" fill="#830f07" stroke="#420803"></path><path d="M404 600L451 553.1L434 544.4Z" fill="#941107" stroke="#420803"></path><path d="M228 233.4L216 259.1L262 259.3Z" fill="#6f0c06" stroke="#420803"></path><path d="M764 439.4L762 410.7L722 417.3Z" fill="#7b0e07" stroke="#420803"></path><path d="M752 386.7L822 387.7L747 353.6Z" fill="#870f07" stroke="#420803"></path><path d="M768 182.3L745 168.3L742 206.1Z" fill="#8c1007" stroke="#420803"></path><path d="M742 206.1L745 168.3L699 176.7Z" fill="#730d06" stroke="#420803"></path><path d="M216 259.1L209 302.9L223 306.1Z" fill="#7b0e07" stroke="#420803"></path><path d="M223 306.1L209 302.9L225 314.9Z" fill="#830f07" stroke="#420803"></path><path d="M194 455.3L276 492.4L275 453.3Z" fill="#7b0e07" stroke="#420803"></path><path d="M321 600L371 561.3L324 512.1Z" fill="#941107" stroke="#420803"></path><path d="M651 589.3L689 520.6L669 518.4Z" fill="#6b0c05" stroke="#420803"></path><path d="M669 518.4L689 520.6L692 483.7Z" fill="#7f0e07" stroke="#420803"></path><path d="M759 457.1L764 439.4L722 417.3Z" fill="#830f07" stroke="#420803"></path><path d="M593 29.6L593 50.6L612 68.7Z" fill="#730d06" stroke="#420803"></path><path d="M593 50.6L590 31.6L534 77.7Z" fill="#6b0c05" stroke="#420803"></path><path d="M472 51.9L405 0L431 91.6Z" fill="#7f0e07" stroke="#420803"></path><path d="M593 29.6L612 68.7L659 35.6Z" fill="#7b0e07" stroke="#420803"></path><path d="M404 600L434 544.4L399 547.1Z" fill="#830f07" stroke="#420803"></path><path d="M528 563.1L567 600L614 487.4Z" fill="#6b0c05" stroke="#420803"></path><path d="M466 600L527 600L503 555.3Z" fill="#901007" stroke="#420803"></path><path d="M659 35.6L612 68.7L661 93.4Z" fill="#6f0c06" stroke="#420803"></path><path d="M524 0L491 56.9L534 77.7Z" fill="#6f0c06" stroke="#420803"></path><path d="M527 600L551 600L528 563.1Z" fill="#6f0c06" stroke="#420803"></path><path d="M524 0L534 77.7L538 0Z" fill="#8c1007" stroke="#420803"></path><path d="M759 457.1L722 417.3L720 472.1Z" fill="#8c1007" stroke="#420803"></path><path d="M762 410.7L822 387.7L752 386.7Z" fill="#941107" stroke="#420803"></path><path d="M785 192.4L768 182.3L742 206.1Z" fill="#730d06" stroke="#420803"></path><path d="M745 168.3L749 145.6L699 176.7Z" fill="#941107" stroke="#420803"></path><path d="M551 600L567 600L528 563.1Z" fill="#730d06" stroke="#420803"></path><path d="M768 182.3L749 145.6L745 168.3Z" fill="#941107" stroke="#420803"></path><path d="M726 54.6L659 35.6L661 93.4Z" fill="#6f0c06" stroke="#420803"></path><path d="M228 233.4L200 246.1L216 259.1Z" fill="#6f0c06" stroke="#420803"></path><path d="M216 259.1L179 279.3L209 302.9Z" fill="#7f0e07" stroke="#420803"></path><path d="M200 131.4L200 246.1L228 233.4Z" fill="#830f07" stroke="#420803"></path><path d="M778 471.6L759 457.1L769 503.3Z" fill="#901007" stroke="#420803"></path><path d="M200 131.4L239 142.7L197 48.9Z" fill="#941107" stroke="#420803"></path><path d="M276 135.7L239 142.7L293 157.4Z" fill="#6b0c05" stroke="#420803"></path><path d="M146 390L198 379.6L131 354.9Z" fill="#870f07" stroke="#420803"></path><path d="M209 302.9L198 379.6L225 314.9Z" fill="#8c1007" stroke="#420803"></path><path d="M236 390L194 455.3L253 402.9Z" fill="#830f07" stroke="#420803"></path><path d="M343 608.3L404 600L371 561.3Z" fill="#941107" stroke="#420803"></path><path d="M371 561.3L404 600L399 547.1Z" fill="#730d06" stroke="#420803"></path><path d="M538 0L534 77.7L547 0Z" fill="#7f0e07" stroke="#420803"></path><path d="M547 0L534 77.7L551 0Z" fill="#901007" stroke="#420803"></path><path d="M837 295L785 192.4L724 237.1Z" fill="#870f07" stroke="#420803"></path><path d="M811 167.7L770 119.9L749 145.6Z" fill="#730d06" stroke="#420803"></path><path d="M837 295L724 237.1L766 326.9Z" fill="#770d06" stroke="#420803"></path><path d="M551 0L534 77.7L590 31.6Z" fill="#6f0c06" stroke="#420803"></path><path d="M572 0L551 0L590 31.6Z" fill="#901007" stroke="#420803"></path><path d="M785 192.4L785 188.4L768 182.3Z" fill="#6b0c05" stroke="#420803"></path><path d="M567 600L609 600L614 487.4Z" fill="#770d06" stroke="#420803"></path><path d="M769 503.3L759 457.1L720 472.1Z" fill="#730d06" stroke="#420803"></path><path d="M770 119.9L754 127.4L749 145.6Z" fill="#770d06" stroke="#420803"></path><path d="M749 145.6L754 127.4L703 120.3Z" fill="#730d06" stroke="#420803"></path><path d="M593 29.6L572 0L590 31.6Z" fill="#770d06" stroke="#420803"></path><path d="M613 0L572 0L593 29.6Z" fill="#8c1007" stroke="#420803"></path><path d="M151 247.3L179 279.3L200 246.1Z" fill="#6f0c06" stroke="#420803"></path><path d="M200 246.1L179 279.3L216 259.1Z" fill="#7f0e07" stroke="#420803"></path><path d="M726 54.6L661 93.4L703 120.3Z" fill="#7f0e07" stroke="#420803"></path><path d="M524 0L405 0L496 8.9Z" fill="#7f0e07" stroke="#420803"></path><path d="M496 8.9L405 0L472 51.9Z" fill="#830f07" stroke="#420803"></path><path d="M373 66.6L312 0L358 76.7Z" fill="#6f0c06" stroke="#420803"></path><path d="M260 32.7L276 135.7L291 125.3Z" fill="#901007" stroke="#420803"></path><path d="M609 600L651 589.3L635 501.1Z" fill="#730d06" stroke="#420803"></path><path d="M405 0L399 0L373 66.6Z" fill="#7b0e07" stroke="#420803"></path><path d="M759 457.1L778 471.6L764 439.4Z" fill="#901007" stroke="#420803"></path><path d="M764 439.4L822 387.7L762 410.7Z" fill="#7f0e07" stroke="#420803"></path><path d="M769 503.3L720 472.1L689 520.6Z" fill="#830f07" stroke="#420803"></path><path d="M567 600L575 625.1L609 600Z" fill="#870f07" stroke="#420803"></path><path d="M609 600L592 635.1L651 589.3Z" fill="#8c1007" stroke="#420803"></path><path d="M551 600L575 625.1L567 600Z" fill="#8c1007" stroke="#420803"></path><path d="M527 600L575 625.1L551 600Z" fill="#6f0c06" stroke="#420803"></path><path d="M466 600L575 625.1L527 600Z" fill="#901007" stroke="#420803"></path><path d="M383 627.1L575 625.1L466 600Z" fill="#870f07" stroke="#420803"></path><path d="M659 35.6L613 0L593 29.6Z" fill="#730d06" stroke="#420803"></path><path d="M754 127.4L743 85.7L703 120.3Z" fill="#770d06" stroke="#420803"></path><path d="M659 35.6L665 18.9L613 0Z" fill="#870f07" stroke="#420803"></path><path d="M770 119.9L743 85.7L754 127.4Z" fill="#941107" stroke="#420803"></path><path d="M811 167.7L749 145.6L768 182.3Z" fill="#901007" stroke="#420803"></path><path d="M726 54.6L665 18.9L659 35.6Z" fill="#901007" stroke="#420803"></path><path d="M171 409.7L236 390L198 379.6Z" fill="#6f0c06" stroke="#420803"></path><path d="M171 409.7L194 455.3L236 390Z" fill="#730d06" stroke="#420803"></path><path d="M321 600L324 512.1L289 600Z" fill="#770d06" stroke="#420803"></path><path d="M778 471.6L822 387.7L764 439.4Z" fill="#730d06" stroke="#420803"></path><path d="M785 192.4L811 167.7L785 188.4Z" fill="#7b0e07" stroke="#420803"></path><path d="M786 550.4L769 503.3L689 520.6Z" fill="#830f07" stroke="#420803"></path><path d="M857 390.9L851 388L822 387.7Z" fill="#941107" stroke="#420803"></path><path d="M324 512.1L301 502.1L289 600Z" fill="#8c1007" stroke="#420803"></path><path d="M404 600L383 627.1L466 600Z" fill="#941107" stroke="#420803"></path><path d="M343 608.3L383 627.1L404 600Z" fill="#7b0e07" stroke="#420803"></path><path d="M146 390L171 409.7L198 379.6Z" fill="#941107" stroke="#420803"></path><path d="M289 600L301 502.1L283 600Z" fill="#7b0e07" stroke="#420803"></path><path d="M343 608.3L236 613.3L383 627.1Z" fill="#870f07" stroke="#420803"></path><path d="M383 627.1L592 635.1L575 625.1Z" fill="#6b0c05" stroke="#420803"></path><path d="M575 625.1L592 635.1L609 600Z" fill="#870f07" stroke="#420803"></path><path d="M651 589.3L690 600L689 520.6Z" fill="#870f07" stroke="#420803"></path><path d="M859 320.9L837 295L766 326.9Z" fill="#830f07" stroke="#420803"></path><path d="M785 188.4L811 167.7L768 182.3Z" fill="#730d06" stroke="#420803"></path><path d="M818 69.7L733 61.6L743 85.7Z" fill="#8c1007" stroke="#420803"></path><path d="M743 85.7L733 61.6L703 120.3Z" fill="#901007" stroke="#420803"></path><path d="M733 61.6L726 54.6L703 120.3Z" fill="#6f0c06" stroke="#420803"></path><path d="M260 32.7L291 125.3L328 90.9Z" fill="#730d06" stroke="#420803"></path><path d="M239 142.7L200 131.4L228 233.4Z" fill="#8c1007" stroke="#420803"></path><path d="M848 160.3L811 167.7L879 197.3Z" fill="#830f07" stroke="#420803"></path><path d="M800 0L728 14.9L733 61.6Z" fill="#6b0c05" stroke="#420803"></path><path d="M665 18.9L623 -15.1L613 0Z" fill="#7b0e07" stroke="#420803"></path><path d="M613 0L623 -15.1L572 0Z" fill="#6f0c06" stroke="#420803"></path><path d="M572 0L623 -15.1L551 0Z" fill="#770d06" stroke="#420803"></path><path d="M551 0L623 -15.1L547 0Z" fill="#7f0e07" stroke="#420803"></path><path d="M547 0L623 -15.1L538 0Z" fill="#941107" stroke="#420803"></path><path d="M538 0L623 -15.1L524 0Z" fill="#901007" stroke="#420803"></path><path d="M524 0L623 -15.1L405 0Z" fill="#941107" stroke="#420803"></path><path d="M405 0L206 -33.1L399 0Z" fill="#870f07" stroke="#420803"></path><path d="M728 14.9L623 -15.1L665 18.9Z" fill="#770d06" stroke="#420803"></path><path d="M144 240.4L151 247.3L200 246.1Z" fill="#6f0c06" stroke="#420803"></path><path d="M131 319.7L198 379.6L209 302.9Z" fill="#6f0c06" stroke="#420803"></path><path d="M592 635.1L690 600L651 589.3Z" fill="#7f0e07" stroke="#420803"></path><path d="M150 142.3L144 240.4L200 246.1Z" fill="#7f0e07" stroke="#420803"></path><path d="M131 319.7L209 302.9L179 279.3Z" fill="#6b0c05" stroke="#420803"></path><path d="M226 547.3L301 502.1L276 492.4Z" fill="#6b0c05" stroke="#420803"></path><path d="M321 600L289 600L343 608.3Z" fill="#7f0e07" stroke="#420803"></path><path d="M206 -33.1L312 0L399 0Z" fill="#901007" stroke="#420803"></path><path d="M399 0L312 0L373 66.6Z" fill="#901007" stroke="#420803"></path><path d="M131 319.7L179 279.3L133 261.4Z" fill="#870f07" stroke="#420803"></path><path d="M120 435.4L152 490.4L194 455.3Z" fill="#730d06" stroke="#420803"></path><path d="M194 455.3L226 547.3L276 492.4Z" fill="#7f0e07" stroke="#420803"></path><path d="M221 565.4L226 547.3L194 551.1Z" fill="#830f07" stroke="#420803"></path><path d="M226 547.3L283 600L301 502.1Z" fill="#730d06" stroke="#420803"></path><path d="M289 600L236 613.3L343 608.3Z" fill="#6f0c06" stroke="#420803"></path><path d="M206 -33.1L306 0L312 0Z" fill="#870f07" stroke="#420803"></path><path d="M312 0L306 0L328 90.9Z" fill="#8c1007" stroke="#420803"></path><path d="M275 12.7L260 32.7L328 90.9Z" fill="#7b0e07" stroke="#420803"></path><path d="M864 331L859 320.9L822 387.7Z" fill="#6f0c06" stroke="#420803"></path><path d="M822 387.7L859 320.9L766 326.9Z" fill="#941107" stroke="#420803"></path><path d="M879 197.3L811 167.7L785 192.4Z" fill="#8c1007" stroke="#420803"></path><path d="M133 261.4L179 279.3L151 247.3Z" fill="#8c1007" stroke="#420803"></path><path d="M857 390.9L822 387.7L881 467.4Z" fill="#870f07" stroke="#420803"></path><path d="M126 244.3L133 261.4L144 240.4Z" fill="#6f0c06" stroke="#420803"></path><path d="M144 240.4L133 261.4L151 247.3Z" fill="#901007" stroke="#420803"></path><path d="M131 319.7L131 354.9L198 379.6Z" fill="#730d06" stroke="#420803"></path><path d="M782 631.1L719 600L690 600Z" fill="#730d06" stroke="#420803"></path><path d="M690 600L719 600L689 520.6Z" fill="#730d06" stroke="#420803"></path><path d="M867 390.7L857 390.9L881 467.4Z" fill="#7b0e07" stroke="#420803"></path><path d="M306 0L275 12.7L328 90.9Z" fill="#6f0c06" stroke="#420803"></path><path d="M851 388L864 331L822 387.7Z" fill="#6b0c05" stroke="#420803"></path><path d="M879 197.3L785 192.4L837 295Z" fill="#830f07" stroke="#420803"></path><path d="M843 511.4L778 471.6L769 503.3Z" fill="#901007" stroke="#420803"></path><path d="M851 388L867 390.7L864 331Z" fill="#6f0c06" stroke="#420803"></path><path d="M733 61.6L728 14.9L726 54.6Z" fill="#730d06" stroke="#420803"></path><path d="M726 54.6L728 14.9L665 18.9Z" fill="#6b0c05" stroke="#420803"></path><path d="M818 69.7L743 85.7L770 119.9Z" fill="#7b0e07" stroke="#420803"></path><path d="M782 631.1L729 600L719 600Z" fill="#941107" stroke="#420803"></path><path d="M719 600L729 600L689 520.6Z" fill="#870f07" stroke="#420803"></path><path d="M118 213.1L126 244.3L144 240.4Z" fill="#730d06" stroke="#420803"></path><path d="M133 261.4L118 254L131 319.7Z" fill="#8c1007" stroke="#420803"></path><path d="M88 378.7L120 385.6L131 354.9Z" fill="#7f0e07" stroke="#420803"></path><path d="M150 142.3L200 246.1L200 131.4Z" fill="#8c1007" stroke="#420803"></path><path d="M194 551.1L226 547.3L194 455.3Z" fill="#7f0e07" stroke="#420803"></path><path d="M226 547.3L221 565.4L283 600Z" fill="#7f0e07" stroke="#420803"></path><path d="M275 12.7L244 25.9L260 32.7Z" fill="#770d06" stroke="#420803"></path><path d="M260 32.7L197 48.9L239 142.7Z" fill="#730d06" stroke="#420803"></path><path d="M729 600L786 550.4L689 520.6Z" fill="#870f07" stroke="#420803"></path><path d="M881 467.4L822 387.7L778 471.6Z" fill="#7b0e07" stroke="#420803"></path><path d="M857 390.9L867 390.7L851 388Z" fill="#8c1007" stroke="#420803"></path><path d="M108 248.9L118 254L126 244.3Z" fill="#830f07" stroke="#420803"></path><path d="M126 244.3L118 254L133 261.4Z" fill="#6f0c06" stroke="#420803"></path><path d="M879 271.1L837 295L859 320.9Z" fill="#901007" stroke="#420803"></path><path d="M811 167.7L818 69.7L770 119.9Z" fill="#6f0c06" stroke="#420803"></path><path d="M151 122.9L150 142.3L200 131.4Z" fill="#7b0e07" stroke="#420803"></path><path d="M131 354.9L120 385.6L146 390Z" fill="#770d06" stroke="#420803"></path><path d="M120 435.4L194 455.3L171 409.7Z" fill="#730d06" stroke="#420803"></path><path d="M88 378.7L131 354.9L62 326.1Z" fill="#7f0e07" stroke="#420803"></path><path d="M900 326.1L859 320.9L864 331Z" fill="#830f07" stroke="#420803"></path><path d="M900 288.7L879 271.1L859 320.9Z" fill="#770d06" stroke="#420803"></path><path d="M152 490.4L194 551.1L194 455.3Z" fill="#8c1007" stroke="#420803"></path><path d="M221 565.4L236 613.3L283 600Z" fill="#7b0e07" stroke="#420803"></path><path d="M120 435.4L171 409.7L146 390Z" fill="#6b0c05" stroke="#420803"></path><path d="M150 142.3L118 213.1L144 240.4Z" fill="#6b0c05" stroke="#420803"></path><path d="M197 48.9L151 122.9L200 131.4Z" fill="#941107" stroke="#420803"></path><path d="M150 142.3L108 172.6L118 213.1Z" fill="#8c1007" stroke="#420803"></path><path d="M118 213.1L108 248.9L126 244.3Z" fill="#901007" stroke="#420803"></path><path d="M118 254L62 326.1L131 319.7Z" fill="#901007" stroke="#420803"></path><path d="M244 25.9L197 48.9L260 32.7Z" fill="#901007" stroke="#420803"></path><path d="M120 385.6L120 435.4L146 390Z" fill="#770d06" stroke="#420803"></path><path d="M91 420.9L120 435.4L120 385.6Z" fill="#870f07" stroke="#420803"></path><path d="M879 271.1L879 197.3L837 295Z" fill="#770d06" stroke="#420803"></path><path d="M848 160.3L818 69.7L811 167.7Z" fill="#770d06" stroke="#420803"></path><path d="M205 600L221 565.4L194 551.1Z" fill="#6b0c05" stroke="#420803"></path><path d="M205 600L236 613.3L221 565.4Z" fill="#901007" stroke="#420803"></path><path d="M283 600L236 613.3L289 600Z" fill="#870f07" stroke="#420803"></path><path d="M851 79.9L818 69.7L848 160.3Z" fill="#941107" stroke="#420803"></path><path d="M275 12.7L237 0L244 25.9Z" fill="#7f0e07" stroke="#420803"></path><path d="M244 25.9L197 0L197 48.9Z" fill="#830f07" stroke="#420803"></path><path d="M306 0L237 0L275 12.7Z" fill="#7f0e07" stroke="#420803"></path><path d="M206 -33.1L237 0L306 0Z" fill="#730d06" stroke="#420803"></path><path d="M809 567.3L843 511.4L786 550.4Z" fill="#830f07" stroke="#420803"></path><path d="M786 550.4L843 511.4L769 503.3Z" fill="#830f07" stroke="#420803"></path><path d="M879 197.3L879 181.6L848 160.3Z" fill="#830f07" stroke="#420803"></path><path d="M900 326.9L864 331L900 330.6Z" fill="#8c1007" stroke="#420803"></path><path d="M900 326.9L900 326.1L864 331Z" fill="#7b0e07" stroke="#420803"></path><path d="M879 271.1L900 250.3L879 197.3Z" fill="#7f0e07" stroke="#420803"></path><path d="M879 197.3L900 171.6L879 181.6Z" fill="#730d06" stroke="#420803"></path><path d="M900 326.1L900 288.7L859 320.9Z" fill="#6f0c06" stroke="#420803"></path><path d="M900 330.6L864 331L900 372Z" fill="#7b0e07" stroke="#420803"></path><path d="M900 372L864 331L867 390.7Z" fill="#941107" stroke="#420803"></path><path d="M782 631.1L809 567.3L786 550.4Z" fill="#6b0c05" stroke="#420803"></path><path d="M136 526.3L172 557.4L152 490.4Z" fill="#870f07" stroke="#420803"></path><path d="M152 490.4L172 557.4L194 551.1Z" fill="#830f07" stroke="#420803"></path><path d="M900 288.7L900 250.3L879 271.1Z" fill="#6b0c05" stroke="#420803"></path><path d="M881 467.4L900 372L867 390.7Z" fill="#941107" stroke="#420803"></path><path d="M116 117.6L150 142.3L151 122.9Z" fill="#6b0c05" stroke="#420803"></path><path d="M116 117.6L108 172.6L150 142.3Z" fill="#830f07" stroke="#420803"></path><path d="M118 213.1L73 183.4L108 248.9Z" fill="#941107" stroke="#420803"></path><path d="M120 435.4L127 489.4L152 490.4Z" fill="#8c1007" stroke="#420803"></path><path d="M172 557.4L205 600L194 551.1Z" fill="#730d06" stroke="#420803"></path><path d="M62 326.1L118 254L108 248.9Z" fill="#901007" stroke="#420803"></path><path d="M62 326.1L131 354.9L131 319.7Z" fill="#870f07" stroke="#420803"></path><path d="M120 435.4L91 496.6L127 489.4Z" fill="#830f07" stroke="#420803"></path><path d="M899 485.6L881 467.4L843 511.4Z" fill="#6f0c06" stroke="#420803"></path><path d="M843 511.4L881 467.4L778 471.6Z" fill="#8c1007" stroke="#420803"></path><path d="M88 378.7L91 420.9L120 385.6Z" fill="#7f0e07" stroke="#420803"></path><path d="M127 489.4L136 526.3L152 490.4Z" fill="#730d06" stroke="#420803"></path><path d="M172 557.4L196 605.1L205 600Z" fill="#830f07" stroke="#420803"></path><path d="M116 512.1L136 526.3L127 489.4Z" fill="#8c1007" stroke="#420803"></path><path d="M197 48.9L131 96.6L151 122.9Z" fill="#870f07" stroke="#420803"></path><path d="M112 76.7L131 96.6L197 48.9Z" fill="#7f0e07" stroke="#420803"></path><path d="M149 600L196 605.1L172 557.4Z" fill="#730d06" stroke="#420803"></path><path d="M205 600L196 605.1L236 613.3Z" fill="#870f07" stroke="#420803"></path><path d="M900 140.7L848 160.3L879 181.6Z" fill="#7b0e07" stroke="#420803"></path><path d="M900 110.4L851 79.9L848 160.3Z" fill="#6f0c06" stroke="#420803"></path><path d="M818 69.7L800 0L733 61.6Z" fill="#7b0e07" stroke="#420803"></path><path d="M131 96.6L116 117.6L151 122.9Z" fill="#870f07" stroke="#420803"></path><path d="M94 161.6L94 165.1L108 172.6Z" fill="#770d06" stroke="#420803"></path><path d="M108 172.6L73 183.4L118 213.1Z" fill="#7f0e07" stroke="#420803"></path><path d="M900 250.3L900 171.6L879 197.3Z" fill="#941107" stroke="#420803"></path><path d="M116 117.6L94 161.6L108 172.6Z" fill="#6b0c05" stroke="#420803"></path><path d="M36 232L62 326.1L108 248.9Z" fill="#8c1007" stroke="#420803"></path><path d="M206 -33.1L197 0L237 0Z" fill="#830f07" stroke="#420803"></path><path d="M237 0L197 0L244 25.9Z" fill="#730d06" stroke="#420803"></path><path d="M131 96.6L112 76.7L116 117.6Z" fill="#830f07" stroke="#420803"></path><path d="M818 600L829 579.3L809 567.3Z" fill="#6f0c06" stroke="#420803"></path><path d="M809 567.3L829 579.3L843 511.4Z" fill="#770d06" stroke="#420803"></path><path d="M782 631.1L786 550.4L729 600Z" fill="#6b0c05" stroke="#420803"></path><path d="M91 496.6L116 512.1L127 489.4Z" fill="#7f0e07" stroke="#420803"></path><path d="M136 526.3L144 558.3L172 557.4Z" fill="#7f0e07" stroke="#420803"></path><path d="M120 572.1L144 558.3L136 526.3Z" fill="#830f07" stroke="#420803"></path><path d="M592 635.1L782 631.1L690 600Z" fill="#901007" stroke="#420803"></path><path d="M863 0L800 0L818 69.7Z" fill="#8c1007" stroke="#420803"></path><path d="M728 14.9L800 0L623 -15.1Z" fill="#830f07" stroke="#420803"></path><path d="M54 410.6L77 442.4L91 420.9Z" fill="#8c1007" stroke="#420803"></path><path d="M91 420.9L77 442.4L120 435.4Z" fill="#6f0c06" stroke="#420803"></path><path d="M73 183.4L108 172.6L94 165.1Z" fill="#7b0e07" stroke="#420803"></path><path d="M782 631.1L818 600L809 567.3Z" fill="#6f0c06" stroke="#420803"></path><path d="M818 600L830 586.3L829 579.3Z" fill="#870f07" stroke="#420803"></path><path d="M900 488.4L899 485.6L843 511.4Z" fill="#7f0e07" stroke="#420803"></path><path d="M900 171.6L900 140.7L879 181.6Z" fill="#730d06" stroke="#420803"></path><path d="M851 79.9L863 0L818 69.7Z" fill="#830f07" stroke="#420803"></path><path d="M54 410.6L91 420.9L88 378.7Z" fill="#7b0e07" stroke="#420803"></path><path d="M62 135.7L73 183.4L94 161.6Z" fill="#830f07" stroke="#420803"></path><path d="M94 161.6L73 183.4L94 165.1Z" fill="#7b0e07" stroke="#420803"></path><path d="M900 488.4L843 511.4L900 557.1Z" fill="#8c1007" stroke="#420803"></path><path d="M881 467.4L899 485.6L900 372Z" fill="#730d06" stroke="#420803"></path><path d="M900 557.1L843 511.4L829 579.3Z" fill="#6f0c06" stroke="#420803"></path><path d="M899 485.6L900 488.4L900 372Z" fill="#830f07" stroke="#420803"></path><path d="M77 442.4L91 496.6L120 435.4Z" fill="#870f07" stroke="#420803"></path><path d="M116 512.1L120 572.1L136 526.3Z" fill="#830f07" stroke="#420803"></path><path d="M623 -15.1L206 -33.1L405 0Z" fill="#7f0e07" stroke="#420803"></path><path d="M127 16.9L112 76.7L197 48.9Z" fill="#870f07" stroke="#420803"></path><path d="M116 117.6L62 135.7L94 161.6Z" fill="#941107" stroke="#420803"></path><path d="M127 16.9L197 48.9L197 0Z" fill="#830f07" stroke="#420803"></path><path d="M900 140.7L900 110.4L848 160.3Z" fill="#7b0e07" stroke="#420803"></path><path d="M31 458.7L54 410.6L0 411.9Z" fill="#830f07" stroke="#420803"></path><path d="M62 326.1L54 410.6L88 378.7Z" fill="#941107" stroke="#420803"></path><path d="M31 458.7L87 519.6L91 496.6Z" fill="#730d06" stroke="#420803"></path><path d="M144 558.3L149 600L172 557.4Z" fill="#6f0c06" stroke="#420803"></path><path d="M196 605.1L149 600L236 613.3Z" fill="#8c1007" stroke="#420803"></path><path d="M120 572.1L149 600L144 558.3Z" fill="#7b0e07" stroke="#420803"></path><path d="M87 519.6L116 512.1L91 496.6Z" fill="#6f0c06" stroke="#420803"></path><path d="M87 519.6L120 572.1L116 512.1Z" fill="#730d06" stroke="#420803"></path><path d="M31 458.7L91 496.6L77 442.4Z" fill="#6f0c06" stroke="#420803"></path><path d="M29 217L36 232L73 183.4Z" fill="#870f07" stroke="#420803"></path><path d="M73 183.4L36 232L108 248.9Z" fill="#730d06" stroke="#420803"></path><path d="M74 100.6L62 135.7L116 117.6Z" fill="#901007" stroke="#420803"></path><path d="M818 600L859 600L830 586.3Z" fill="#7b0e07" stroke="#420803"></path><path d="M830 586.3L859 600L829 579.3Z" fill="#901007" stroke="#420803"></path><path d="M782 631.1L859 600L818 600Z" fill="#901007" stroke="#420803"></path><path d="M125 0L127 16.9L197 0Z" fill="#941107" stroke="#420803"></path><path d="M112 76.7L74 100.6L116 117.6Z" fill="#870f07" stroke="#420803"></path><path d="M49 0L74 100.6L112 76.7Z" fill="#830f07" stroke="#420803"></path><path d="M900 110.4L900 68.9L851 79.9Z" fill="#7b0e07" stroke="#420803"></path><path d="M900 140.7L909 80.4L900 110.4Z" fill="#730d06" stroke="#420803"></path><path d="M900 110.4L909 80.4L900 68.9Z" fill="#770d06" stroke="#420803"></path><path d="M900 171.6L909 80.4L900 140.7Z" fill="#7f0e07" stroke="#420803"></path><path d="M926 0L909 80.4L900 171.6Z" fill="#7f0e07" stroke="#420803"></path><path d="M926 0L900 171.6L900 250.3Z" fill="#6b0c05" stroke="#420803"></path><path d="M926 0L900 250.3L900 288.7Z" fill="#870f07" stroke="#420803"></path><path d="M924 557.1L900 288.7L900 326.1Z" fill="#6f0c06" stroke="#420803"></path><path d="M924 557.1L900 326.1L900 326.9Z" fill="#6f0c06" stroke="#420803"></path><path d="M924 557.1L900 326.9L900 330.6Z" fill="#941107" stroke="#420803"></path><path d="M924 557.1L900 330.6L900 372Z" fill="#870f07" stroke="#420803"></path><path d="M0 189.3L29 217L73 183.4Z" fill="#830f07" stroke="#420803"></path><path d="M0 369.6L54 410.6L62 326.1Z" fill="#870f07" stroke="#420803"></path><path d="M36 232L29 217L0 232.1Z" fill="#901007" stroke="#420803"></path><path d="M859 600L900 557.1L829 579.3Z" fill="#770d06" stroke="#420803"></path><path d="M900 488.4L924 557.1L900 372Z" fill="#870f07" stroke="#420803"></path><path d="M900 68.9L863 0L851 79.9Z" fill="#6b0c05" stroke="#420803"></path><path d="M800 0L884 -35.1L623 -15.1Z" fill="#6b0c05" stroke="#420803"></path><path d="M897 0L863 0L900 68.9Z" fill="#941107" stroke="#420803"></path><path d="M206 -33.1L125 0L197 0Z" fill="#770d06" stroke="#420803"></path><path d="M49 0L36 100.9L74 100.6Z" fill="#7f0e07" stroke="#420803"></path><path d="M0 600L102 594.1L87 519.6Z" fill="#941107" stroke="#420803"></path><path d="M87 519.6L102 594.1L120 572.1Z" fill="#830f07" stroke="#420803"></path><path d="M120 572.1L102 594.1L149 600Z" fill="#901007" stroke="#420803"></path><path d="M149 600L0 600L236 613.3Z" fill="#870f07" stroke="#420803"></path><path d="M54 410.6L31 458.7L77 442.4Z" fill="#901007" stroke="#420803"></path><path d="M0 268L62 326.1L36 232Z" fill="#6b0c05" stroke="#420803"></path><path d="M859 600L900 591.3L900 557.1Z" fill="#7b0e07" stroke="#420803"></path><path d="M900 557.1L924 557.1L900 488.4Z" fill="#7f0e07" stroke="#420803"></path><path d="M900 600L900 591.3L859 600Z" fill="#770d06" stroke="#420803"></path><path d="M900 591.3L924 557.1L900 557.1Z" fill="#7f0e07" stroke="#420803"></path><path d="M0 232.1L29 217L0 209.6Z" fill="#6f0c06" stroke="#420803"></path><path d="M0 232.1L0 268L36 232Z" fill="#8c1007" stroke="#420803"></path><path d="M0 268L0 369.6L62 326.1Z" fill="#6f0c06" stroke="#420803"></path><path d="M782 631.1L900 600L859 600Z" fill="#6f0c06" stroke="#420803"></path><path d="M900 591.3L905 600L924 557.1Z" fill="#7f0e07" stroke="#420803"></path><path d="M0 209.6L29 217L0 189.3Z" fill="#770d06" stroke="#420803"></path><path d="M36 100.9L62 135.7L74 100.6Z" fill="#6f0c06" stroke="#420803"></path><path d="M0 369.6L0 388.7L54 410.6Z" fill="#8c1007" stroke="#420803"></path><path d="M782 631.1L905 600L900 600Z" fill="#7f0e07" stroke="#420803"></path><path d="M900 600L905 600L900 591.3Z" fill="#6b0c05" stroke="#420803"></path><path d="M49 0L112 76.7L127 16.9Z" fill="#7b0e07" stroke="#420803"></path><path d="M0 189.3L73 183.4L0 147.7Z" fill="#7f0e07" stroke="#420803"></path><path d="M0 388.7L0 408.4L54 410.6Z" fill="#901007" stroke="#420803"></path><path d="M31 458.7L0 509.3L87 519.6Z" fill="#7b0e07" stroke="#420803"></path><path d="M900 0L897 0L900 68.9Z" fill="#730d06" stroke="#420803"></path><path d="M863 0L884 -35.1L800 0Z" fill="#941107" stroke="#420803"></path><path d="M0 408.4L0 411.9L54 410.6Z" fill="#901007" stroke="#420803"></path><path d="M926 0L900 0L900 68.9Z" fill="#901007" stroke="#420803"></path><path d="M897 0L884 -35.1L863 0Z" fill="#901007" stroke="#420803"></path><path d="M0 147.7L73 183.4L62 135.7Z" fill="#6f0c06" stroke="#420803"></path><path d="M900 0L884 -35.1L897 0Z" fill="#6f0c06" stroke="#420803"></path><path d="M623 -15.1L884 -35.1L206 -33.1Z" fill="#7f0e07" stroke="#420803"></path><path d="M36 100.9L0 147.7L62 135.7Z" fill="#770d06" stroke="#420803"></path><path d="M125 0L81 -13.3L127 16.9Z" fill="#7b0e07" stroke="#420803"></path><path d="M36 100.9L0 92.4L0 147.7Z" fill="#830f07" stroke="#420803"></path><path d="M206 -33.1L81 -13.3L125 0Z" fill="#830f07" stroke="#420803"></path><path d="M909 80.4L926 0L900 68.9Z" fill="#770d06" stroke="#420803"></path><path d="M900 0L926 0L884 -35.1Z" fill="#6b0c05" stroke="#420803"></path><path d="M924 557.1L926 0L900 288.7Z" fill="#6f0c06" stroke="#420803"></path><path d="M0 411.9L0 509.3L31 458.7Z" fill="#8c1007" stroke="#420803"></path><path d="M0 86.9L0 92.4L36 100.9Z" fill="#7b0e07" stroke="#420803"></path><path d="M0 509.3L0 527.1L87 519.6Z" fill="#730d06" stroke="#420803"></path><path d="M81 -13.3L49 0L127 16.9Z" fill="#770d06" stroke="#420803"></path><path d="M30 0L0 86.9L36 100.9Z" fill="#7f0e07" stroke="#420803"></path><path d="M81 -13.3L30 0L49 0Z" fill="#7f0e07" stroke="#420803"></path><path d="M49 0L30 0L36 100.9Z" fill="#870f07" stroke="#420803"></path><path d="M0 527.1L0 600L87 519.6Z" fill="#941107" stroke="#420803"></path><path d="M102 594.1L0 600L149 600Z" fill="#6f0c06" stroke="#420803"></path><path d="M236 613.3L-22 600L383 627.1Z" fill="#8c1007" stroke="#420803"></path><path d="M-22 600L-3 600L0 527.1Z" fill="#830f07" stroke="#420803"></path><path d="M0 527.1L-3 600L0 600Z" fill="#830f07" stroke="#420803"></path><path d="M0 600L-3 600L236 613.3Z" fill="#7b0e07" stroke="#420803"></path><path d="M-22 600L0 527.1L0 509.3Z" fill="#6b0c05" stroke="#420803"></path><path d="M-22 600L0 509.3L0 411.9Z" fill="#730d06" stroke="#420803"></path><path d="M-22 600L0 411.9L0 408.4Z" fill="#870f07" stroke="#420803"></path><path d="M-22 600L0 408.4L0 388.7Z" fill="#7b0e07" stroke="#420803"></path><path d="M-22 600L0 388.7L0 369.6Z" fill="#8c1007" stroke="#420803"></path><path d="M-22 600L0 369.6L0 268Z" fill="#6f0c06" stroke="#420803"></path><path d="M-22 600L0 268L0 232.1Z" fill="#730d06" stroke="#420803"></path><path d="M-22 600L0 232.1L0 209.6Z" fill="#830f07" stroke="#420803"></path><path d="M-22 600L0 209.6L0 189.3Z" fill="#941107" stroke="#420803"></path><path d="M-22 600L0 189.3L0 147.7Z" fill="#6f0c06" stroke="#420803"></path><path d="M-22 600L0 147.7L0 92.4Z" fill="#7f0e07" stroke="#420803"></path><path d="M30 0L0 0L0 86.9Z" fill="#730d06" stroke="#420803"></path><path d="M0 86.9L-22 600L0 92.4Z" fill="#730d06" stroke="#420803"></path><path d="M81 -13.3L0 0L30 0Z" fill="#8c1007" stroke="#420803"></path><path d="M0 0L-22 600L0 86.9Z" fill="#901007" stroke="#420803"></path><path d="M-3 600L-22 600L236 613.3Z" fill="#830f07" stroke="#420803"></path></g></svg>